<svg xmlns="http://www.w3.org/2000/svg" xmlns:xlink="http://www.w3.org/1999/xlink" width="1080" zoomAndPan="magnify" viewBox="0 0 810 1012.49997" height="1350" preserveAspectRatio="xMidYMid meet" version="1.0"><defs><g/><clipPath id="ce4265fd67"><path d="M 265.445312 80.960938 L 544.539062 80.960938 L 544.539062 360.050781 L 265.445312 360.050781 Z M 265.445312 80.960938 " clip-rule="nonzero"/></clipPath><clipPath id="c69cf6811b"><path d="M 544.539062 220.507812 C 544.539062 143.4375 482.0625 80.960938 404.992188 80.960938 C 327.921875 80.960938 265.445312 143.4375 265.445312 220.507812 C 265.445312 297.574219 327.921875 360.050781 404.992188 360.050781 C 482.0625 360.050781 544.539062 297.574219 544.539062 220.507812 Z M 544.539062 220.507812 " clip-rule="nonzero"/></clipPath></defs><g clip-path="url(#ce4265fd67)"><g clip-path="url(#c69cf6811b)"><path fill="#00bf63" d="M 544.539062 80.960938 L 544.539062 360.050781 L 265.445312 360.050781 L 265.445312 80.960938 Z M 544.539062 80.960938 " fill-opacity="1" fill-rule="nonzero"/></g></g><g fill="#ffffff" fill-opacity="1"><g transform="translate(338.552012, 147.257666)"><g><path d="M 0 42.953125 L 0 17.359375 L 133.609375 17.359375 L 133.609375 47.609375 L 47.515625 101.25 L 47.890625 103.625 L 133.609375 103.625 L 133.609375 129.03125 L 0 129.03125 L 0 101.984375 L 91.9375 45.234375 L 91.5625 42.953125 Z M 0 42.953125 "/></g></g></g><g fill="#000000" fill-opacity="1"><g transform="translate(344.709323, 388.421948)"><g><path d="M 0 37.609375 L 0 15.203125 L 117 15.203125 L 117 41.6875 L 41.609375 88.671875 L 41.9375 90.75 L 117 90.75 L 117 113 L 0 113 L 0 89.3125 L 80.5 39.609375 L 80.1875 37.609375 Z M 0 37.609375 "/></g></g></g><g fill="#000000" fill-opacity="1"><g transform="translate(344.709323, 516.702449)"><g><path d="M -1.6875 51.296875 C -1.6875 42.648438 0.0859375 35.054688 3.640625 28.515625 C 7.191406 21.984375 12.394531 16.914062 19.25 13.3125 C 26.101562 9.71875 34.382812 7.921875 44.09375 7.921875 C 53.800781 7.921875 62.09375 9.71875 68.96875 13.3125 C 75.851562 16.914062 81.070312 21.984375 84.625 28.515625 C 88.175781 35.054688 89.953125 42.648438 89.953125 51.296875 C 89.953125 59.941406 88.175781 67.53125 84.625 74.0625 C 81.070312 80.59375 75.851562 85.671875 68.96875 89.296875 C 62.09375 92.929688 53.800781 94.75 44.09375 94.75 C 34.382812 94.75 26.101562 92.929688 19.25 89.296875 C 12.394531 85.671875 7.191406 80.59375 3.640625 74.0625 C 0.0859375 67.53125 -1.6875 59.941406 -1.6875 51.296875 Z M 17.125 51.296875 C 17.125 65.003906 26.113281 71.859375 44.09375 71.859375 C 53.425781 71.859375 60.265625 70.097656 64.609375 66.578125 C 68.960938 63.054688 71.140625 57.960938 71.140625 51.296875 C 71.140625 37.585938 62.125 30.734375 44.09375 30.734375 C 26.113281 30.734375 17.125 37.585938 17.125 51.296875 Z M 17.125 51.296875 "/></g></g></g><g fill="#000000" fill-opacity="1"><g transform="translate(344.709323, 619.294826)"><g><path d="M -1.6875 63.9375 C -1.6875 53.164062 0.550781 43.671875 5.03125 35.453125 C 9.519531 27.234375 16.257812 20.800781 25.25 16.15625 C 34.238281 11.519531 45.320312 9.203125 58.5 9.203125 C 71.675781 9.203125 82.757812 11.519531 91.75 16.15625 C 100.738281 20.800781 107.472656 27.234375 111.953125 35.453125 C 116.429688 43.671875 118.671875 53.164062 118.671875 63.9375 C 118.671875 75.195312 116.46875 84.757812 112.0625 92.625 C 107.664062 100.5 100.960938 106.113281 91.953125 109.46875 L 81.625 92.59375 L 81.703125 90.59375 C 87.785156 88.082031 92.144531 84.675781 94.78125 80.375 C 97.425781 76.082031 98.75 70.601562 98.75 63.9375 C 98.75 54.226562 95.535156 46.648438 89.109375 41.203125 C 82.679688 35.765625 72.476562 33.046875 58.5 33.046875 C 44.570312 33.046875 34.394531 35.765625 27.96875 41.203125 C 21.539062 46.648438 18.328125 54.226562 18.328125 63.9375 C 18.328125 79.144531 25.71875 88.457031 40.5 91.875 L 40.5 93.875 L 31.609375 110.921875 C 20.515625 107.710938 12.191406 102.238281 6.640625 94.5 C 1.085938 86.769531 -1.6875 76.582031 -1.6875 63.9375 Z M -1.6875 63.9375 "/></g></g></g><g fill="#000000" fill-opacity="1"><g transform="translate(344.709323, 734.051041)"><g><path d="M -1.6875 34.40625 C -1.6875 28.75 -0.644531 23.835938 1.4375 19.671875 C 3.519531 15.515625 6.570312 12.316406 10.59375 10.078125 C 14.625 7.835938 19.46875 6.71875 25.125 6.71875 C 30.351562 6.71875 34.738281 7.835938 38.28125 10.078125 C 41.832031 12.316406 44.742188 15.785156 47.015625 20.484375 C 49.285156 25.179688 51.03125 31.316406 52.25 38.890625 C 53.101562 44.171875 54.035156 48.1875 55.046875 50.9375 C 56.066406 53.6875 57.21875 55.539062 58.5 56.5 C 59.78125 57.457031 61.40625 57.9375 63.375 57.9375 C 66.207031 57.9375 68.367188 56.945312 69.859375 54.96875 C 71.359375 53 72.109375 49.722656 72.109375 45.140625 C 72.109375 40.222656 71.015625 35.550781 68.828125 31.125 C 66.640625 26.695312 63.753906 22.859375 60.171875 19.609375 L 60.171875 18 L 74.1875 8.71875 C 79.144531 13.195312 83.007812 18.664062 85.78125 25.125 C 88.5625 31.582031 89.953125 38.625 89.953125 46.25 C 89.953125 57.9375 87.46875 66.394531 82.5 71.625 C 77.539062 76.851562 70.5 79.46875 61.375 79.46875 L 23.046875 79.46875 C 19.097656 79.46875 17.125 81.203125 17.125 84.671875 C 17.125 86.003906 17.363281 87.3125 17.84375 88.59375 L 17.53125 89.703125 L 2.078125 91.3125 C 1.273438 90.082031 0.617188 88.375 0.109375 86.1875 C -0.390625 84 -0.640625 81.597656 -0.640625 78.984375 C -0.640625 73.703125 0.367188 69.578125 2.390625 66.609375 C 4.421875 63.648438 7.597656 61.535156 11.921875 60.265625 L 12.078125 58.578125 C 2.898438 54.253906 -1.6875 46.195312 -1.6875 34.40625 Z M 14.890625 41.453125 C 14.890625 46.578125 16.609375 50.671875 20.046875 53.734375 C 23.484375 56.804688 28.269531 58.34375 34.40625 58.34375 L 43.375 58.34375 L 43.6875 56.8125 C 42.625 55.476562 41.734375 53.726562 41.015625 51.5625 C 40.296875 49.40625 39.585938 46.300781 38.890625 42.25 C 38.085938 37.445312 36.710938 33.992188 34.765625 31.890625 C 32.816406 29.785156 30.054688 28.734375 26.484375 28.734375 C 22.703125 28.734375 19.820312 29.851562 17.84375 32.09375 C 15.875 34.332031 14.890625 37.453125 14.890625 41.453125 Z M 14.890625 41.453125 "/></g></g></g><g fill="#000000" fill-opacity="1"><g transform="translate(344.709323, 827.120431)"><g><path d="M -35.765625 12.71875 L 88.265625 12.71875 L 88.265625 34.890625 L 76.75 34.890625 L 76.421875 36.578125 C 80.898438 39.191406 84.273438 42.679688 86.546875 47.046875 C 88.816406 51.421875 89.953125 56.546875 89.953125 62.421875 C 89.953125 69.515625 88.269531 75.710938 84.90625 81.015625 C 81.539062 86.328125 76.429688 90.460938 69.578125 93.421875 C 62.722656 96.390625 54.226562 97.875 44.09375 97.875 C 34.007812 97.875 25.550781 96.3125 18.71875 93.1875 C 11.894531 90.0625 6.785156 85.722656 3.390625 80.171875 C 0.00390625 74.628906 -1.6875 68.234375 -1.6875 60.984375 C -1.6875 55.484375 -0.765625 50.734375 1.078125 46.734375 C 2.921875 42.734375 5.789062 39.347656 9.6875 36.578125 L 9.359375 34.890625 L -35.765625 34.890625 Z M 17.125 54.8125 C 17.125 61.425781 19.285156 66.441406 23.609375 69.859375 C 27.929688 73.273438 34.757812 74.984375 44.09375 74.984375 C 53.425781 74.984375 60.265625 73.273438 64.609375 69.859375 C 68.960938 66.441406 71.140625 61.425781 71.140625 54.8125 C 71.140625 48.625 68.898438 43.71875 64.421875 40.09375 C 59.941406 36.46875 53.164062 34.65625 44.09375 34.65625 C 35.070312 34.65625 28.320312 36.46875 23.84375 40.09375 C 19.363281 43.71875 17.125 48.625 17.125 54.8125 Z M 17.125 54.8125 "/></g></g></g></svg>